<?xml version="1.0" encoding="UTF-8" standalone="no"?>
<!DOCTYPE svg PUBLIC "-//W3C//DTD SVG 1.1//EN" "http://www.w3.org/Graphics/SVG/1.1/DTD/svg11.dtd">
<svg width="100%" height="100%" viewBox="0 0 104 70" version="1.1" xmlns="http://www.w3.org/2000/svg" xmlns:xlink="http://www.w3.org/1999/xlink" xml:space="preserve" xmlns:serif="http://www.serif.com/" style="fill-rule:evenodd;clip-rule:evenodd;stroke-linejoin:round;stroke-miterlimit:2;">
    <g transform="matrix(1,0,0,1,-472,-225)">
        <g transform="matrix(0.338667,0,0,0.338667,-6800,-8320)">
            <g id="LOGO_Blanco" transform="matrix(0.183618,0,0,0.183618,15816.3,24185.8)">
                <path d="M31337.2,5737.72L31870.5,6804.21L31713.5,6804.21L31368.9,6115.12C31368,6113.53 31367.1,6111.85 31366,6110.33C31361.7,6104.24 31355.2,6100.19 31348.3,6097.3C31346.4,6096.86 31344.6,6096.43 31342.8,6095.99C31337.9,6095.6 31336.6,6095.2 31331.7,6095.99C31324.3,6097.17 31317.3,6100.73 31312.1,6106.06C31308.5,6109.61 31308.1,6110.88 31305.6,6115.12L30961,6804.21L30804,6804.21L31337.2,5737.72ZM32461,5693.94L32260.2,6095.55L32103.2,6095.55L32195.7,5910.58C32196.4,5908.87 32197.2,5907.21 32197.8,5905.45C32202.3,5891.28 32196.7,5874.7 32184.8,5866.04C32178.8,5861.7 32171.4,5859.9 32164,5859.32L31691.6,5859.32C31686.7,5859.71 31685.4,5859.52 31680.7,5861.05C31668.3,5865.05 31658.7,5876.26 31656.6,5889.02C31655.7,5894.48 31656.5,5900.02 31657.8,5905.45L31659.9,5910.58L32006.3,6603.4L31927.8,6760.43L31394.5,5693.94L32461,5693.94Z" style="fill:white;"/>
            </g>
        </g>
    </g>
</svg>
